<?xml version="1.0" encoding="UTF-8" standalone="no"?>
<svg
   xmlns:dc="http://purl.org/dc/elements/1.1/"
   xmlns:cc="http://creativecommons.org/ns#"
   xmlns:rdf="http://www.w3.org/1999/02/22-rdf-syntax-ns#"
   xmlns:svg="http://www.w3.org/2000/svg"
   xmlns="http://www.w3.org/2000/svg"
   xmlns:sodipodi="http://sodipodi.sourceforge.net/DTD/sodipodi-0.dtd"
   xmlns:inkscape="http://www.inkscape.org/namespaces/inkscape"
   width="350.41"
   height="334.49564"
   viewBox="0 0 1624 1632"
   id="svg2"
   sodipodi:version="0.32"
   inkscape:version="0.45+devel"
   sodipodi:docname="coq.svg"
   sodipodi:docbase="/mnt/donnees/donnees-02/09-Mes_images/Travaux/Travaux_vectoriel/signes zodiac chinois"
   inkscape:output_extension="org.inkscape.output.svg.inkscape"
   version="1.0"
   inkscape:export-filename="/mnt/win_d/donnees-02/09-Mes_images/Travaux/Travaux_vectoriel/signes zodiac chinois/coq.png"
   inkscape:export-xdpi="196"
   inkscape:export-ydpi="196">
  <metadata
     id="metadata8">
    <rdf:RDF>
      <cc:Work
         rdf:about="">
        <dc:format>image/svg+xml</dc:format>
        <dc:type
           rdf:resource="http://purl.org/dc/dcmitype/StillImage" />
        <dc:title></dc:title>
        <dc:date></dc:date>
        <dc:creator>
          <cc:Agent>
            <dc:title></dc:title>
          </cc:Agent>
        </dc:creator>
        <dc:rights>
          <cc:Agent>
            <dc:title></dc:title>
          </cc:Agent>
        </dc:rights>
        <dc:publisher>
          <cc:Agent>
            <dc:title></dc:title>
          </cc:Agent>
        </dc:publisher>
        <dc:identifier></dc:identifier>
        <dc:source></dc:source>
        <dc:relation></dc:relation>
        <dc:language></dc:language>
        <dc:subject>
          <rdf:Bag />
        </dc:subject>
        <dc:coverage></dc:coverage>
        <dc:description></dc:description>
        <dc:contributor>
          <cc:Agent>
            <dc:title></dc:title>
          </cc:Agent>
        </dc:contributor>
        <cc:license
           rdf:resource="" />
      </cc:Work>
    </rdf:RDF>
  </metadata>
  <defs
     id="defs6">
    <inkscape:perspective
       sodipodi:type="inkscape:persp3d"
       id="perspective7"
       inkscape:vp_x="-50 : 600 : 1"
       inkscape:vp_y="0 : 1000 : 0"
       inkscape:vp_z="700 : 600 : 1"
       inkscape:persp3d-origin="300 : 400 : 1" />
  </defs>
  <sodipodi:namedview
     inkscape:window-height="713"
     inkscape:window-width="1024"
     inkscape:pageshadow="2"
     inkscape:pageopacity="0.0"
     borderopacity="1.0"
     bordercolor="#666666"
     pagecolor="#ffffff"
     id="base"
     inkscape:zoom="1.0391813"
     inkscape:cx="280.57853"
     inkscape:cy="206.08683"
     inkscape:window-x="0"
     inkscape:window-y="0"
     inkscape:current-layer="svg2"
     showgrid="false" />
  <path
     style="fill:#000000;fill-opacity:1;stroke:#000000;stroke-width:1.10106027"
     d="M 413.22358,-4.1445001 C 344.91843,3.3738587 272.29853,20.373084 222.17066,70.633677 C 198.23,96.837898 188.97717,142.47733 215.08384,170.3692 C 236.00661,188.28453 263.43906,172.37638 284.28298,162.80808 C 324.56972,144.99392 370.42121,137.46574 413.52524,149.00181 C 472.73828,162.15479 529.52346,184.64572 584.48917,209.94571 C 642.70372,238.3169 692.45762,282.04076 730.98657,333.84974 C 798.88635,422.70128 843.9995,526.61563 879.42048,632.02664 C 897.63282,688.08125 912.03921,745.30749 924.31447,802.93331 C 920.8173,810.34636 936.0669,827.82093 931.24996,811.17462 C 919.1415,713.2596 922.74814,614.22302 912.48161,516.18739 C 900.64071,416.82653 869.96742,317.89295 811.02369,236.05022 C 738.92389,129.96095 633.03127,42.158013 507.00955,10.348514 C 476.31083,2.5040541 444.83583,-2.1717524 413.22358,-4.1445001 z M 317.74101,195.35386 C 226.54881,198.31651 130.3824,211.58936 54.366597,266.03672 C 19.373751,291.76788 -11.256514,324.81926 -30.63201,363.84345 C -36.662316,386.07528 -41.950423,412.5435 -29.07204,433.24157 C -10.444308,450.76427 18.091418,445.05892 40.201573,438.79469 C 86.904361,421.30949 107.795,370.97937 148.57131,345.08192 C 213.93832,299.6022 296.03865,284.36555 374.47126,286.86023 C 432.53295,290.25497 491.76857,299.51552 544.30218,325.66588 C 591.93021,348.77604 628.76139,387.79669 664.85848,425.45574 C 748.03662,514.89912 808.65272,622.1038 863.06382,730.67538 C 867.00529,740.73492 872.75604,750.2431 872.06417,734.24954 C 871.36235,713.31864 857.4079,695.58889 855.95704,674.76249 C 823.86149,564.79068 775.158,457.21133 697.15292,371.93768 C 626.825,291.55705 532.22881,230.06001 426.54988,209.48135 C 390.8194,201.47208 354.38857,196.13827 317.74101,195.35386 z M 1389.6577,228.9706 C 1376.4441,268.74765 1383.4566,312.64915 1366.8698,351.57341 C 1343.9201,369.89084 1331.1674,331.54799 1330.2177,313.8131 C 1321.8483,288.72959 1306.1991,265.2815 1283.4833,251.12495 C 1272.6266,229.06627 1231.8193,238.99948 1252.7457,263.85974 C 1265.0554,292.44482 1285.3579,320.21683 1283.1935,352.73885 C 1278.7407,374.69782 1251.0194,379.17966 1234.1982,368.44867 C 1202.8852,352.74324 1178.2718,326.8355 1148.5529,308.53218 C 1135.6893,301.10236 1122.1858,291.6728 1107.3753,290.08126 C 1086.6226,294.59142 1092.1833,322.56051 1104.9216,333.09011 C 1127.3099,346.60763 1148.9252,363.0059 1165.8155,383.42305 C 1177.7285,397.6052 1194.4707,424.87997 1170.3478,436.55798 C 1147.3754,449.47883 1133.2186,423.28465 1114.6179,415.10826 C 1092.7849,402.85245 1069.3454,393.43542 1047.4961,381.52623 C 1037.4109,374.65155 1022.4346,354.84493 1011.8855,361.6494 C 1016.2548,389.59113 1035.9748,411.68852 1052.1331,433.69796 C 1060.6192,447.81055 1102.1001,459.1139 1083.6262,477.46275 C 1063.4694,487.28456 1041.4883,473.06654 1024.5713,462.62748 C 1008.3711,455.85481 989.81665,428.19002 973.61157,438.55229 C 966.25095,460.42648 990.18542,479.08177 997.17068,498.52276 C 1009.5591,517.11056 1043.3862,516.19957 1046.1121,540.76664 C 1044.5534,562.74579 1014.4394,566.57284 999.11343,556.14195 C 988.10164,543.36177 958.06743,522.07269 951.62439,549.57454 C 953.12534,571.39497 981.38123,584.90142 974.02882,608.30398 C 967.61028,625.03458 948.98335,642.21775 958.97321,661.1896 C 988.82386,696.13761 1041.2468,701.79796 1082.9083,687.5136 C 1144.3743,667.36898 1191.6139,619.11926 1226.4275,566.26214 C 1250.2904,535.88107 1286.4634,510.07905 1326.8013,513.18989 C 1341.4758,506.65437 1364.483,536.20353 1338.3512,533.93483 C 1305.537,532.93794 1269.9851,543.76994 1250.4974,571.81454 C 1224.9408,602.70324 1198.003,633.73937 1184.056,671.95499 C 1172.2109,702.06551 1160.7485,732.51327 1151.6896,763.54869 C 1146.988,784.79824 1151.7683,806.63058 1159.2515,826.49832 C 1164.0503,863.96024 1144.1132,899.23358 1146.8747,936.71028 C 1144.3751,999.51464 1166.6616,1062.1683 1206.2939,1110.7108 C 1230.9854,1143.5772 1263.6103,1177.0961 1263.6474,1220.9077 C 1262.2179,1269.7392 1224.1051,1316.3339 1175.4915,1324.4792 C 1128.7331,1328.2107 1086.5426,1300.7524 1052.3544,1271.8037 C 1007.665,1231.259 974.74563,1178.4595 954.34457,1121.915 C 939.40329,1071.454 947.65953,1017.8311 935.69701,966.79113 C 918.47881,877.3975 873.6339,793.40143 807.54769,730.59662 C 745.13136,665.45193 674.67402,602.23361 586.641,575.36622 C 472.85406,540.97621 344.15435,569.19674 252.14691,643.54712 C 196.77656,686.73835 149.73065,743.17989 125.62159,809.72122 C 113.25293,848.79534 126.87957,898.88435 166.51316,916.43707 C 200.89306,931.84392 240.13094,923.72052 274.90124,914.00315 C 303.92311,905.04951 326.42799,883.14967 342.4056,858.02116 C 370.70525,816.64254 393.95685,768.52336 438.55946,741.8918 C 506.99251,698.49127 594.70911,699.21933 669.77276,723.60363 C 697.3496,731.74158 724.9427,741.06387 749.58733,756.16652 C 768.06996,766.95895 786.58777,778.72973 797.12359,798.57771 C 771.17881,782.98738 720.57521,778.08002 713.38371,775.84105 C 693.36697,771.24237 672.23567,774.26885 651.85327,775.45813 C 567.11523,783.83277 481.78191,820.80868 428.41549,888.99706 C 412.80564,909.92286 395.8562,936.83767 405.92283,963.80297 C 418.20433,998.8114 467.17068,1011.3257 497.02613,991.45918 C 516.54797,978.86018 514.37507,953.30645 518.27652,933.19944 C 528.28805,875.13434 570.48433,820.65085 628.6572,805.01596 C 685.01572,792.26214 746.036,797.58014 797.95626,823.68133 C 811.20142,839.98996 836.05135,807.40496 845.12104,834.27075 C 862.42422,857.96063 874.62664,885.02313 886.50623,911.69908 C 915.15628,983.12107 921.31745,1061.3208 917.27544,1137.5329 C 918.04358,1235.1471 948.39717,1336.3352 1017.4459,1407.6013 C 1074.1272,1464.4658 1156.0267,1490.3029 1235.1982,1488.4854 C 1289.8119,1489.1934 1344.4203,1481.6735 1396.9146,1466.8473 C 1416.2463,1465.7504 1441.0291,1433.9252 1456.1423,1454.5814 C 1449.3169,1472.4514 1425.8059,1477.8755 1410.9036,1488.5859 C 1341.5627,1523.8036 1259.5561,1535.604 1183.7343,1516.5859 C 1152.1404,1509.2793 1121.4871,1498.3712 1091.6423,1485.7757 C 1100.9258,1511.4897 1130.1401,1518.9273 1149.742,1534.567 C 1208.9074,1568.1058 1280.3064,1575.9369 1346.4034,1562.1921 C 1397.3196,1554.6096 1449.3235,1542.3406 1491.8268,1511.8347 C 1504.8553,1495.9977 1548.2722,1508.739 1525.6339,1528.8528 C 1516.2245,1535.1039 1504.7654,1548.2308 1524.1171,1546.4277 C 1545.49,1548.9555 1570.0297,1538.4468 1575.5659,1515.999 C 1577.0735,1495.0955 1606.9097,1487.2523 1604.4866,1513.2779 C 1602.9272,1541.5821 1575.8105,1558.5932 1552.5233,1569.1187 C 1535.8856,1576.2291 1518.0784,1579.8211 1500.6862,1584.5363 C 1512.0401,1603.5796 1538.2992,1600.1054 1557.4123,1601.1374 C 1618.8753,1597.636 1676.956,1544.2923 1676.655,1481.095 C 1673.9646,1443.8119 1637.6347,1418.8452 1603.0548,1414.1986 C 1564.6078,1407.1186 1524.6227,1416.7602 1491.6359,1437.1051 C 1482.7138,1443.2036 1463.1422,1449.9972 1472.9921,1432.2832 C 1492.1362,1416.667 1512.3138,1402.4405 1527.8657,1382.5797 C 1575.7601,1327.3578 1591.0014,1251.609 1589.2846,1180.2735 C 1586.8538,1108.1669 1567.3433,1037.1975 1537.0084,971.97272 C 1515.5087,960.07169 1526.2795,926.69406 1547.677,921.50107 C 1572.9534,902.252 1574.8578,866.2506 1569.6638,837.34361 C 1561.2994,791.69561 1525.7361,754.27833 1482.6789,738.77833 C 1467.2763,731.67346 1447.1954,726.04413 1440.7067,708.66741 C 1436.4678,679.23504 1473.8597,658.59745 1499.1289,669.85802 C 1512.3362,686.35343 1541.6384,674.8822 1529.1219,653.23327 C 1512.4073,641.04867 1492.9026,630.60599 1473.9765,620.72901 C 1455.4018,600.83142 1434.7481,638.03957 1414.3285,618.13234 C 1401.3736,602.05289 1424.6894,589.90468 1425.0416,573.7975 C 1435.1895,552.93566 1467.8495,576.54219 1485.5303,562.77373 C 1504.9388,556.53251 1537.248,531.98803 1520.8618,510.42992 C 1505.7498,504.40406 1494.2261,487.28997 1512.9554,477.13114 C 1531.1888,461.35256 1521.7642,436.25126 1497.8765,438.91927 C 1473.2275,425.90244 1488.778,395.83745 1489.1765,374.78714 C 1494.9565,359.93196 1484.6639,331.04644 1467.6883,351.53955 C 1457.8254,365.55349 1435.0049,403.14319 1419.7058,374.52438 C 1419.0242,352.22632 1416.7356,330.57523 1409.7278,309.16289 C 1403.1611,284.59659 1399.9719,259.10097 1392.8677,234.78037 L 1391.384,231.80933 L 1389.6577,228.9706 z M 359.85656,358.65485 C 260.9591,362.1958 165.64058,406.97444 94.700517,475.05174 C 43.706318,526.91263 9.4795466,598.4084 11.061304,671.95281 C 17.254805,710.47769 68.985182,726.42312 99.105672,704.56584 C 128.36385,685.11581 134.47411,647.96508 154.1044,620.95792 C 200.33871,548.09441 278.09269,492.05903 365.58967,484.94809 C 436.73015,478.21923 508.4045,492.06197 575.96855,513.66767 C 646.97976,538.05821 711.71176,579.46245 765.04224,632.16805 C 786.45089,643.14873 763.6654,616.73099 759.20737,609.47875 C 705.51951,532.21493 639.56599,460.94757 556.18369,415.46657 C 497.0113,380.37045 429.08516,358.17163 359.85656,358.65485 z M 739.68794,845.32349 C 689.62384,845.92876 644.83219,879.39554 621.80856,922.55952 C 599.79349,959.18115 589.14242,1003.1577 594.93293,1045.7165 C 605.83576,1068.8988 636.26635,1069.3691 657.60955,1063.009 C 678.08636,1057.6606 675.95368,1032.0512 668.38209,1016.8929 C 653.43008,992.94319 664.14889,963.08849 676.12415,940.197 C 690.94164,908.28432 722.04087,878.75191 759.4961,881.94003 C 793.35939,886.0703 817.43212,912.43733 842.64605,932.67379 C 853.32735,912.92769 825.33606,897.42811 816.86219,881.43178 C 796.9576,860.37806 769.2887,844.8277 739.68794,845.32349 z M 768.79722,928.86643 C 739.84897,929.89438 712.58097,950.27666 703.42867,977.76375 C 703.25574,999.40531 728.81192,1008.2804 746.89752,1004.2255 C 778.10721,993.65293 815.48016,990.08891 844.43726,1008.9424 C 864.67066,1020.5084 869.33474,1044.2632 881.36233,1062.1515 C 895.81113,1074.4244 880.88015,1044.3457 877.93754,1037.5904 C 858.26778,990.30295 825.07306,939.96699 771.40687,928.98689 C 770.53698,928.9467 769.6671,928.90662 768.79722,928.86643 z M 945.72384,1481.7707 C 944.4873,1542.1617 980.00601,1606.5122 1039.7192,1625.3051 C 1073.9309,1635.3872 1112.6838,1633.8735 1144.6966,1617.6355 C 1167.2246,1601.2839 1157.9965,1568.0866 1138.1565,1553.6895 C 1113.56,1531.267 1080.2922,1520.8158 1048.2499,1514.9597 C 1033.3905,1520.1334 1061.8471,1533.1739 1066.7311,1539.2693 C 1088.2138,1553.5353 1074.5814,1593.2665 1047.8211,1584.1866 C 1025.7645,1577.408 1008.677,1560.3547 991.45588,1545.736 C 972.45491,1527.3841 958.75867,1504.1473 945.72384,1481.7707 z"
     id="selection_to_path"
     sodipodi:nodetypes="ccccccccccccccccccccccccccccccccccccccccccccccccccccccccccccccccccccccccccccccccccccccccccccccccccccccccccccccccccccccccccccccccccccccccccccccccccccccccccccccccccccccccccccc" />
</svg>
